# xmcd
#
# Track frame offsets:
#	150
#	19042
#	48269
#	78455
#	110423
#	131669
#	167198
#	194372
#
# Disc length: 2891 seconds
#
# Revision: 5
# Processed by: cddbd v1.5.2PL0 Copyright (c) Steve Scherf et al.
# Submitted via: EasyCDDAExtractor 2010.6.0.0
#
DISCID=640b4908
DTITLE=Einherjer - Dragons Of The North
DYEAR=1996
DGENRE=Viking Metal
TTITLE0=Dragons Of The North
TTITLE1=Dreamstorm
TTITLE2=Forever Empire
TTITLE3=Conquerer
TTITLE4=Fimbul Winter
TTITLE5=Storms Of The Elder
TTITLE6=Slaget Ved Harfsfjord
TTITLE7=Ballad Of The Swords
EXTD=YEAR: 1996
EXTT0=
EXTT1=
EXTT2=
EXTT3=
EXTT4=
EXTT5=
EXTT6=
EXTT7=
PLAYORDER=
